90_lb_Static
version=1
nRows=29
nColumns=28
inDegrees=yes
endheader
time	ground_force1_vx	ground_force1_vy	ground_force1_vz	ground_force1_px	ground_force1_py	ground_force1_pz	ground_torque1_x	ground_torque1_y	ground_torque1_z	ground_force3_vx	ground_force3_vy	ground_force3_vz	ground_force3_px	ground_force3_py	ground_force3_pz	ground_torque3_x	ground_torque3_y	ground_torque3_z	ground_force2_vx	ground_force2_vy	ground_force2_vz	ground_force2_px	ground_force2_py	ground_force2_pz	ground_torque2_x	ground_torque2_y	ground_torque2_z
1.570000	0.109011	-0.621546	-0.091083	-0.203000	0.000000	0.001500	-0.131072	0.014732	-0.069576	-8.721299	77.090210	-4.951087	-0.238036	0.000000	-0.603659	0.000004	-0.701789	-0.000001	-0.009016	-0.125927	-0.097938	0.200000	0.000000	-0.300000	-0.079390	0.056742	0.038540	
1.571000	0.170623	0.584771	-0.092959	-0.203000	0.000000	0.001500	0.105161	0.051115	-0.267309	-9.165138	75.060150	-4.969276	-0.237946	0.000000	-0.604201	0.000001	-0.697724	-0.000001	0.250541	0.978824	0.154692	0.200000	0.000000	-0.300000	-0.078179	0.038579	-0.167752	
1.572000	-0.150502	0.383036	-0.250127	-0.203000	0.000000	0.001500	0.284533	0.021617	-0.017501	-8.883279	77.493393	-4.981217	-0.235372	0.000000	-0.601621	0.000002	-0.623006	-0.000000	-0.056272	0.094931	0.098616	0.200000	0.000000	-0.300000	-0.122102	-0.063837	-0.013234	
1.573000	-0.271369	-2.252708	-0.512153	-0.203000	0.000000	0.001500	0.088545	-0.016862	-0.088028	-9.185951	78.070244	-5.147103	-0.238068	0.000000	-0.603006	0.000003	-0.688337	-0.000001	-0.174897	-0.325973	-0.318558	0.200000	0.000000	-0.300000	-0.222552	0.093944	0.071091	
1.574000	0.055283	-0.539897	-0.128804	-0.203000	0.000000	0.001500	-0.157877	-0.018719	-0.140544	-9.301505	78.105125	-5.244994	-0.238389	0.000000	-0.603717	0.000004	-0.692858	-0.000000	0.146852	1.929082	0.134325	0.183004	0.000000	-0.244511	0.000000	0.123533	0.000000	
1.575000	0.170102	-0.680973	0.153200	-0.203000	0.000000	0.001500	-0.008143	-0.018824	-0.148773	-8.981126	78.429466	-5.256712	-0.237672	0.000000	-0.601725	-0.000001	-0.742343	-0.000000	0.258328	0.190198	-0.150386	0.200000	0.000000	-0.300000	-0.033457	0.077129	0.088668	
1.576000	-0.150596	-1.039393	-0.065520	-0.203000	0.000000	0.001500	-0.082390	-0.102760	-0.136009	-9.353226	76.496078	-5.000793	-0.237413	0.000000	-0.604509	0.000003	-0.676064	-0.000002	-0.465291	0.002594	-0.010813	0.200000	0.000000	-0.300000	-0.083906	-0.026960	0.028445	
1.577000	0.144714	0.557513	-0.335775	-0.203000	0.000000	0.001500	-0.021091	-0.025505	-0.048947	-9.643021	77.286888	-5.140197	-0.238351	0.000000	-0.604871	0.000002	-0.643597	-0.000001	0.023518	1.963986	-0.406224	0.151262	0.000000	-0.331377	0.000000	-0.005705	-0.000000	
1.578000	0.010354	-0.263962	-0.357801	-0.203000	0.000000	0.001500	-0.174665	-0.018483	0.093056	-9.747087	76.077087	-4.988586	-0.239076	0.000000	-0.603271	0.000003	-0.672387	-0.000000	0.250609	-0.135410	-0.125155	0.200000	0.000000	-0.300000	-0.048237	0.018350	-0.032907	
1.579000	0.166027	-0.680480	0.456004	-0.203000	0.000000	0.001500	0.285064	-0.002103	0.033082	-10.166161	74.967484	-5.132233	-0.239817	0.000000	-0.604281	0.000001	-0.672493	-0.000001	-0.056887	-0.686236	-0.008648	0.200000	0.000000	-0.300000	-0.123455	-0.032225	-0.001161	
1.580000	0.178089	-0.061049	0.044806	-0.203000	0.000000	0.001500	0.149697	0.016671	-0.100636	-9.385515	75.201813	-5.156617	-0.238004	0.000000	-0.602772	0.000002	-0.613001	-0.000000	0.067950	0.261576	-0.245746	0.200000	0.000000	-0.300000	-0.060932	-0.037528	0.061632	
1.581000	-0.149368	-0.651468	-0.080525	-0.203000	0.000000	0.001500	0.169443	-0.082448	-0.036094	-8.817165	77.193352	-5.250131	-0.238375	0.000000	-0.603148	0.000002	-0.691774	-0.000001	0.001907	1.668082	-0.348639	0.195721	0.000000	-0.475152	-0.000000	0.029176	0.000000	
1.582000	0.141250	-0.061899	-0.416979	-0.203000	0.000000	0.001500	0.079782	0.008637	-0.168866	-9.014746	77.386719	-5.337698	-0.237724	0.000000	-0.602736	0.000004	-0.719719	-0.000001	0.078856	1.142777	-0.277273	0.258477	0.000000	-0.332239	0.000000	-0.015081	0.000000	
1.583000	0.095415	-0.649574	0.040656	-0.203000	0.000000	0.001500	0.251195	-0.048995	-0.116554	-9.196754	78.687347	-5.094040	-0.235144	0.000000	-0.603576	-0.000001	-0.656706	-0.000002	0.333966	1.075311	-0.109711	0.247365	0.000000	-0.413666	0.000000	-0.069598	0.000000	
1.584000	-0.072132	-0.388116	0.171266	-0.203000	0.000000	0.001500	0.110543	0.028272	0.089149	-9.299445	78.493103	-5.235184	-0.236706	0.000000	-0.601227	0.000006	-0.739168	-0.000001	0.034403	0.424028	0.155562	0.200000	0.000000	-0.300000	0.034302	0.030280	-0.004347	
1.585000	0.317544	-1.003930	0.337319	-0.203000	0.000000	0.001500	0.223398	-0.047591	-0.229833	-9.149638	78.460938	-5.831868	-0.235979	0.000000	-0.605309	0.000003	-0.687806	-0.000002	-0.259954	0.687289	-0.797427	0.200000	0.000000	-0.300000	0.048231	0.071457	0.172308	
1.586000	0.190965	-1.067996	0.028741	-0.203000	0.000000	0.001500	0.062224	0.011013	-0.031081	-9.375200	76.834961	-5.554846	-0.237106	0.000000	-0.605652	0.000001	-0.644914	0.000000	-0.434174	-0.584573	-0.241908	0.200000	0.000000	-0.300000	-0.200288	0.006492	0.097592	
1.587000	0.261826	0.553574	0.160143	-0.203000	0.000000	0.001500	0.050474	-0.014445	-0.041852	-9.395421	78.293915	-5.190710	-0.235732	0.000000	-0.601361	0.000001	-0.695908	-0.000000	-0.126356	0.913965	-0.095188	0.200000	0.000000	-0.300000	-0.023024	0.051984	0.075887	
1.588000	0.262862	0.064731	-0.312373	-0.203000	0.000000	0.001500	-0.088052	0.081842	-0.109397	-9.151949	78.460579	-5.244186	-0.236273	0.000000	-0.604003	0.000002	-0.628411	-0.000001	-0.010737	0.099487	-0.171289	0.200000	0.000000	-0.300000	-0.124920	0.055387	-0.120669	
1.589000	0.271121	0.646222	0.209259	-0.203000	0.000000	0.001500	0.001071	0.008696	-0.083304	-9.375775	77.485336	-5.416342	-0.238117	0.000000	-0.603918	0.000002	-0.741262	-0.000001	0.076507	0.651579	-0.097737	0.200000	0.000000	-0.300000	-0.054178	0.021859	0.080181	
1.590000	0.349017	-0.258776	0.182708	-0.203000	0.000000	0.001500	-0.031841	-0.000191	0.011089	-9.313540	77.056870	-5.101459	-0.237154	0.000000	-0.601143	0.000000	-0.745651	-0.000001	-0.314095	1.045062	0.241873	0.208451	0.000000	-0.256191	0.000000	-0.013390	0.000000	
1.591000	-0.052853	0.291795	-0.389708	-0.203000	0.000000	0.001500	-0.019715	0.081548	0.006099	-9.391120	78.002113	-5.480973	-0.236669	0.000000	-0.601601	0.000002	-0.799696	-0.000001	-0.030706	0.099435	0.188680	0.200000	0.000000	-0.300000	0.011705	0.050159	-0.065740	
1.592000	-0.088239	0.031584	0.042047	-0.203000	0.000000	0.001500	0.201802	0.024737	0.131650	-9.236828	76.481453	-5.360539	-0.238909	0.000000	-0.603123	0.000002	-0.715707	-0.000001	-0.001662	0.978404	-0.063142	0.200000	0.000000	-0.300000	-0.158737	-0.011028	0.057800	
1.593000	0.154722	0.001007	0.087704	-0.203000	0.000000	0.001500	-0.056470	0.018315	-0.025674	-8.972117	75.986794	-5.263141	-0.238322	0.000000	-0.602704	-0.000001	-0.705026	-0.000000	-0.164604	0.101544	-0.169465	0.200000	0.000000	-0.300000	-0.258953	-0.035028	0.077087	
1.594000	-0.153914	-1.297835	-0.397773	-0.203000	0.000000	0.001500	-0.142859	-0.049288	-0.030228	-9.354269	77.250008	-5.166962	-0.237050	0.000000	-0.601078	0.000001	-0.658645	-0.000001	-0.265027	-0.649447	-0.422651	0.200000	0.000000	-0.300000	-0.003141	-0.003790	0.017115	
1.595000	0.383328	-1.099284	-0.126826	-0.203000	0.000000	0.001500	-0.015104	-0.072418	0.011977	-9.317616	76.734528	-5.406602	-0.238000	0.000000	-0.601547	-0.000000	-0.746774	-0.000001	-0.032692	-0.391462	-0.612985	0.200000	0.000000	-0.300000	-0.296307	0.016463	0.192346	
1.596000	0.118996	0.874928	-0.333466	-0.203000	0.000000	0.001500	0.026327	-0.005997	-0.000118	-9.310013	76.345673	-5.596819	-0.237414	0.000000	-0.603246	0.000004	-0.759769	-0.000001	0.073552	0.617103	-0.629369	0.200000	0.000000	-0.300000	0.026004	0.018926	-0.014868	
1.597000	0.331019	-0.224469	0.044920	-0.203000	0.000000	0.001500	0.006700	-0.050103	-0.141698	-9.385745	75.983200	-5.116720	-0.237108	0.000000	-0.604208	0.000004	-0.767745	-0.000000	-0.238660	-1.233289	-0.384541	0.200000	0.000000	-0.300000	-0.048380	0.067747	0.069572	
1.598000	0.353503	-0.354297	-0.077108	-0.203000	0.000000	0.001500	0.158141	-0.021925	-0.123461	-9.315674	76.278442	-5.395759	-0.236478	0.000000	-0.601339	0.000000	-0.754296	-0.000002	0.540139	1.815530	-0.036654	0.243112	0.000000	-0.279883	-0.000000	0.020376	0.000000	
